<svg xmlns="http://www.w3.org/2000/svg" xmlns:xlink="http://www.w3.org/1999/xlink" version="1.1" x="0px" y="0px" viewBox="0 0 100 125" enable-background="new 0 0 100 100" xml:space="preserve"><path d="M95.15,54c0,4.94-3.99,8.94-8.93,8.94c-3.59,0-6.69-2.12-8.11-5.19c-0.05,0.31-0.14,0.62-0.24,0.93  c-0.99,2.93-3.52,4.78-5.9,4.43c-0.26,0.03-0.54,0.04-0.82,0.04H41.91c-1.43,0-2.71-0.34-3.65-0.89c-0.93-0.55-1.51-1.31-1.51-2.15  c0-1.68,2.31-3.04,5.16-3.04h11.96L22.65,46.54l-10.2,14.58c-0.89,1.27-2.26,1.97-3.61,1.97c-0.75,0-1.5-0.22-2.14-0.67  c-1.79-1.25-2.13-3.87-0.75-5.84L20.1,36.35c0.89-1.27,2.27-1.96,3.62-1.96c0.21,0,0.42,0.02,0.62,0.05  c0.49-0.03,0.99,0.04,1.47,0.2L75.23,51.3c0.89,0.3,1.61,0.9,2.12,1.69c0.5-4.46,4.28-7.92,8.87-7.92  C91.16,45.07,95.15,49.07,95.15,54z"/><text x="0" y="115" fill="#000000" font-size="5px" font-weight="bold" font-family="'Helvetica Neue', Helvetica, Arial-Unicode, Arial, Sans-serif">Created by Tokka Elkholy</text><text x="0" y="120" fill="#000000" font-size="5px" font-weight="bold" font-family="'Helvetica Neue', Helvetica, Arial-Unicode, Arial, Sans-serif">from the Noun Project</text></svg>