<svg xmlns:x="http://ns.adobe.com/Extensibility/1.0/" xmlns:i="http://ns.adobe.com/AdobeIllustrator/10.0/" xmlns:graph="http://ns.adobe.com/Graphs/1.0/" xmlns="http://www.w3.org/2000/svg" xmlns:xlink="http://www.w3.org/1999/xlink" version="1.1" x="0px" y="0px" viewBox="0 0 100 125" style="enable-background:new 0 0 100 100;" xml:space="preserve"><switch><foreignObject requiredExtensions="http://ns.adobe.com/AdobeIllustrator/10.0/" x="0" y="0" width="1" height="1"/><g i:extraneous="self"><g><path d="M75.7,70.9l-2.3-11.2c0,0,0.6-12.7,0.7-14c0.1-1.3,0-2.8-0.4-4.1c-1.7-5.8-5.4-8.2-9.9-7.3c-4,0.7-13.7,5.8-21.2,10     c-4.1,2.3-6.9,6.1-7.9,10.5l-28.4,11c-3,1.2-4.5,4.6-3.4,7.6C3.8,75.6,6,77,8.4,77c0.7,0,1.4-0.1,2.1-0.4l52.8-20.7l-0.2,3.9     c0,0.4,0,0.9,0.1,1.3l2.4,11.8c0.5,2.4,2.6,4.1,5,4.1c0.3,0,0.7,0,1-0.1C74.5,76.4,76.3,73.6,75.7,70.9z"/><ellipse transform="matrix(0.8997 -0.4365 0.4365 0.8997 -6.3828 41.0118)" cx="86.1" cy="34.4" rx="11.4" ry="11.4"/></g></g></switch><text x="0" y="115" fill="#000000" font-size="5px" font-weight="bold" font-family="'Helvetica Neue', Helvetica, Arial-Unicode, Arial, Sans-serif">Created by Adrien Coquet</text><text x="0" y="120" fill="#000000" font-size="5px" font-weight="bold" font-family="'Helvetica Neue', Helvetica, Arial-Unicode, Arial, Sans-serif">from the Noun Project</text></svg>