<svg xmlns="http://www.w3.org/2000/svg" viewBox="0 0 100 100">
  <path fill="currentColor" d="M95.15,54c0,4.94-3.99,8.94-8.93,8.94c-3.59,0-6.69-2.12-8.11-5.19
    c-0.05,0.31-0.14,0.62-0.24,0.93c-0.99,2.93-3.52,4.78-5.9,4.43c-0.26,0.03-0.54,0.04-0.82,0.04H41.91
    c-1.43,0-2.71-0.34-3.65-0.89c-0.93-0.55-1.51-1.31-1.51-2.15c0-1.68,2.31-3.04,5.16-3.04h11.96L22.65,46.54
    l-10.2,14.58c-0.89,1.27-2.26,1.97-3.61,1.97c-0.75,0-1.5-0.22-2.14-0.67c-1.79-1.25-2.13-3.87-0.75-5.84
    L20.1,36.35c0.89-1.27,2.27-1.96,3.62-1.96c0.21,0,0.42,0.02,0.62,0.05c0.49-0.03,0.99,0.04,1.47,0.2
    L75.23,51.3c0.89,0.3,1.61,0.9,2.12,1.69c0.5-4.46,4.28-7.92,8.87-7.92C91.16,45.07,95.15,49.07,95.15,54z"/>
</svg>
